<svg id="Layer_1" data-name="Layer 1" xmlns="http://www.w3.org/2000/svg" viewBox="0 0 512.27 750.6"><defs><style>.cls-1{fill:#28567e;}.cls-2{fill:#5b95ba;}</style></defs><title>panza</title><path class="cls-1" d="M65.31,669.79S158.9,561,205.88,456.06C273.65,261.72,287,150.64,224.67,20.7,296.09,110.76,353.09,208.62,375,313.55s29.38,263.52-39.53,346.52C61.43,660.07,65.31,669.79,65.31,669.79Z" transform="translate(-41.3 -20.7)"/><path class="cls-2" d="M382.47,281.45S459.23,494.53,358,656.2c59.19,3.61,84.82.24,151.17,19.43C509.2,490.54,459.43,381.3,382.47,281.45Z" transform="translate(-41.3 -20.7)"/><g id="Layer_2" data-name="Layer 2"><path class="cls-1" d="M61.42,680.51s350.74-21.17,472.72,17.27c43.45,18.38,6.68,55.14-38.43,73.52,53.52-83.69-387.38-86.68-453.81-86.65a0.61,0.61,0,0,1-.08-1.21Z" transform="translate(-41.3 -20.7)"/></g></svg>